<?xml version="1.0" standalone="no"?>
<!DOCTYPE svg PUBLIC "-//W3C//DTD SVG 20010904//EN"
 "http://www.w3.org/TR/2001/REC-SVG-20010904/DTD/svg10.dtd">
<svg version="1.0" xmlns="http://www.w3.org/2000/svg"
 width="1024.000000pt" height="1024.000000pt" viewBox="0 0 1024.000000 1024.000000"
 preserveAspectRatio="xMidYMid meet">

<g transform="translate(0.000000,1024.000000) scale(0.100000,-0.100000)"
fill="#000000" stroke="none">
<path d="M1850 10233 c-479 -50 -916 -257 -1250 -592 -309 -310 -498 -681
-577 -1131 -17 -100 -18 -247 -18 -3390 0 -3143 1 -3290 18 -3390 79 -450 268
-821 577 -1131 307 -308 667 -493 1125 -576 95 -17 255 -18 3395 -18 3140 0
3300 1 3395 18 371 68 658 193 950 416 95 72 285 267 361 371 207 280 329 567
391 920 17 101 18 241 18 3390 0 3143 -1 3290 -18 3390 -107 611 -439 1110
-950 1428 -207 130 -432 215 -725 275 l-107 22 -3275 1 c-1801 0 -3291 -1
-3310 -3z m1130 -1157 c421 -2 685 -8 720 -15 211 -41 312 -66 357 -86 17 -8
35 -15 41 -15 14 0 95 -35 187 -82 244 -123 464 -314 601 -523 50 -77 144
-263 172 -340 45 -126 79 -264 110 -440 25 -143 26 -167 26 -535 1 -356 -1
-395 -22 -516 -31 -182 -91 -413 -114 -438 -4 -6 -8 -17 -8 -25 0 -20 -80
-187 -127 -266 -106 -176 -268 -352 -435 -473 -91 -65 -282 -171 -358 -197
-25 -8 -54 -19 -65 -25 -51 -24 -214 -66 -335 -86 -47 -8 -103 -18 -126 -24
-95 -22 -496 -31 -1214 -28 -702 3 -745 4 -744 21 0 9 1 936 2 2060 l2 2042
332 -2 c183 -2 632 -5 998 -7z m3985 1 c721 -2 672 1 895 -64 107 -31 125 -38
229 -91 224 -114 350 -231 468 -434 28 -47 56 -104 63 -125 7 -21 16 -43 21
-48 4 -6 13 -33 19 -60 6 -28 14 -59 19 -70 10 -21 24 -109 43 -255 15 -127 4
-425 -20 -535 -24 -106 -48 -192 -61 -220 -5 -11 -23 -51 -40 -88 -124 -276
-383 -504 -688 -606 -126 -42 -154 -49 -293 -73 -112 -19 -173 -22 -598 -27
l-473 -6 1 -707 0 -708 -455 0 -455 0 0 2063 0 2062 332 -2 c183 -2 630 -4
993 -6z m-793 -5173 c184 -47 295 -156 354 -349 25 -82 25 -302 0 -394 -40
-147 -127 -256 -255 -318 -70 -34 -83 -37 -188 -41 -193 -8 -289 24 -399 133
-65 64 -93 111 -127 209 -18 51 -21 85 -21 211 1 162 10 209 62 314 95 190
346 293 574 235z m-4657 -30 c166 -66 257 -171 293 -339 2 -11 6 -85 9 -164 4
-126 2 -154 -17 -225 -43 -158 -132 -252 -295 -312 -44 -17 -82 -19 -313 -19
l-262 0 0 538 c0 295 0 540 0 543 0 3 120 4 268 2 236 -4 273 -7 317 -24z
m1163 -81 l3 -103 -231 0 -231 0 3 -112 3 -113 199 -2 c109 -1 200 -4 203 -6
2 -3 5 -47 5 -99 l1 -93 -204 -3 -205 -2 3 -118 2 -117 225 -3 226 -2 0 -105
0 -105 -340 0 -340 0 -2 538 c-2 295 -2 540 0 545 2 4 155 6 340 5 l337 -3 3
-102z m342 85 c0 -13 6 -34 13 -48 7 -14 19 -47 27 -75 7 -27 16 -54 21 -60 4
-5 12 -26 17 -45 6 -19 22 -66 37 -105 14 -38 30 -83 35 -100 5 -16 14 -39 19
-50 6 -11 29 -78 52 -148 38 -113 45 -127 56 -111 7 10 13 24 13 32 0 7 54
174 120 370 l120 357 115 3 c63 1 115 -1 115 -5 0 -12 -20 -86 -29 -108 -5
-11 -30 -85 -55 -165 -26 -80 -51 -152 -55 -160 -5 -9 -12 -31 -16 -50 -4 -19
-13 -48 -20 -65 -8 -16 -27 -70 -44 -120 -39 -115 -99 -286 -108 -305 -3 -8
-13 -35 -22 -60 l-16 -45 -125 -3 -126 -3 -16 38 c-27 61 -146 388 -189 518
-22 66 -44 129 -49 140 -5 11 -13 36 -19 55 -5 19 -32 100 -60 180 -28 80 -51
148 -51 153 0 4 54 7 120 7 118 0 120 0 120 -22z m1574 -80 l-3 -103 -225 -3
-226 -2 0 -116 0 -115 193 1 c105 0 198 1 205 0 10 0 12 -23 10 -97 l-3 -98
-202 -3 -203 -2 0 -121 0 -120 218 1 c119 0 223 1 230 0 9 0 12 -28 12 -105
l0 -105 -343 0 -343 0 1 545 0 545 341 0 341 0 -3 -102z m418 -338 l-3 -440
231 -2 231 -3 1 -100 1 -100 -341 -3 -342 -2 -2 537 c-2 296 -2 541 0 546 2 4
54 7 115 7 l112 0 -3 -440z m2298 413 c66 -32 122 -84 155 -144 29 -52 30 -59
30 -179 0 -114 -2 -130 -26 -180 -32 -67 -92 -123 -168 -158 -50 -23 -71 -26
-208 -30 l-153 -4 0 -184 0 -185 -112 3 -113 3 3 465 c2 256 -1 498 -6 538 -4
40 -6 75 -3 78 3 3 130 4 281 2 257 -3 278 -5 320 -25z m1020 -78 l0 -105
-225 0 -226 0 3 -112 3 -113 200 -2 200 -2 3 -100 3 -101 -206 0 -206 0 3
-117 3 -118 220 -2 220 -2 3 -105 3 -106 -335 0 -336 0 -2 541 c-2 297 -1 543
1 545 2 2 154 4 338 4 l333 0 0 -105z m774 91 c138 -42 220 -165 220 -331 -1
-66 -5 -90 -28 -137 -29 -61 -111 -144 -153 -154 -21 -6 -22 -8 -9 -23 13 -15
106 -204 150 -306 9 -22 24 -52 32 -67 30 -55 25 -58 -104 -58 l-118 0 -22 50
c-12 28 -22 53 -22 56 0 5 -28 69 -63 144 -11 25 -36 71 -54 103 l-34 57 -77
0 -77 0 3 -205 3 -205 -113 0 -113 0 0 545 0 545 266 0 c202 0 277 -3 313 -14z
m-6556 -1612 c93 -26 158 -61 219 -118 55 -51 76 -84 128 -201 24 -52 33 -300
16 -401 -36 -211 -201 -370 -408 -394 -104 -11 -231 2 -303 32 -30 12 -59 26
-65 30 -5 5 -29 23 -51 41 -54 41 -84 78 -122 148 -45 84 -57 153 -56 334 0
140 3 168 23 225 55 158 156 252 321 301 74 22 226 24 298 3z m3950 0 c189
-54 318 -200 353 -399 19 -108 7 -304 -23 -390 -85 -241 -293 -361 -562 -326
-105 14 -175 45 -253 109 -73 61 -123 134 -153 227 -21 61 -24 90 -24 230 0
142 2 168 23 230 57 167 169 273 337 319 71 20 234 19 302 0z m2482 -3 c116
-31 241 -140 289 -253 78 -183 75 -439 -7 -608 -37 -76 -132 -169 -212 -208
-129 -62 -337 -63 -465 -2 -70 34 -163 102 -173 128 -3 9 -18 35 -33 57 -15
22 -33 60 -40 85 -7 25 -17 51 -23 59 -7 9 -11 82 -11 196 0 114 4 187 11 196
6 8 16 34 23 59 38 133 169 250 329 295 57 16 247 14 312 -4z m-7392 -40 c105
-56 157 -131 171 -248 23 -186 -39 -331 -169 -393 -25 -12 -54 -27 -65 -33
-11 -6 -89 -13 -177 -15 l-158 -4 0 -185 0 -184 -111 3 -110 3 -2 548 -2 548
280 -3 280 -3 63 -34z m2127 14 c90 -45 158 -118 171 -185 4 -17 11 -33 15
-36 16 -10 10 -163 -8 -217 -22 -62 -90 -140 -141 -160 l-38 -15 62 -129 c106
-217 152 -318 147 -325 -2 -5 -58 -8 -124 -8 l-120 0 -15 38 c-53 132 -113
265 -144 317 l-35 60 -78 3 -77 3 0 -211 0 -210 -115 0 -115 0 0 534 c0 294
-3 542 -6 551 -6 15 17 16 287 13 268 -3 298 -5 334 -23z m1185 -80 l0 -105
-172 0 -173 0 3 -445 2 -446 -112 3 -113 3 4 442 4 443 -169 2 -169 3 -3 103
-3 102 451 0 450 0 0 -105z m820 0 l0 -105 -230 0 -230 0 0 -125 0 -125 215 0
215 0 0 -100 0 -100 -215 0 -215 0 0 -220 0 -220 -115 0 -115 0 -2 543 c-2
298 -2 545 0 550 2 4 158 7 348 7 l344 0 0 -105z m1545 -337 l0 -443 233 -3
232 -2 0 -105 0 -105 -347 0 -348 0 0 550 0 550 115 0 115 0 0 -442z m853
-105 l-3 -548 -112 -3 -113 -3 0 535 c0 294 -3 541 -6 550 -5 14 9 16 115 16
l121 0 -2 -547z"/>
<path d="M2554 8291 c-5 -6 -5 -2546 0 -2552 8 -8 721 10 786 20 168 25 290
60 404 118 92 45 117 64 205 147 167 161 258 356 318 681 26 142 26 504 0 660
-41 242 -105 409 -209 542 -160 203 -372 312 -713 365 -61 9 -783 27 -791 19z"/>
<path d="M6550 8335 c0 -3 0 -274 0 -602 l0 -598 367 1 c345 0 374 2 458 23
127 31 203 71 279 148 71 71 105 125 139 218 19 52 22 81 22 225 0 148 -2 171
-23 223 -55 141 -148 245 -273 305 -105 51 -156 56 -576 59 -216 2 -393 1
-393 -2z"/>
<path d="M5927 3681 c-109 -51 -161 -157 -161 -326 1 -98 13 -156 48 -223 58
-111 225 -156 347 -94 105 53 154 157 154 328 0 56 -5 112 -11 125 -7 13 -18
40 -25 59 -16 47 -75 107 -126 131 -55 25 -172 25 -226 0z"/>
<path d="M1150 3356 l0 -336 100 0 c54 0 122 5 150 11 66 14 126 61 159 124
25 47 26 58 26 200 0 170 -9 199 -76 265 -51 49 -93 61 -236 67 l-123 5 0
-336z"/>
<path d="M6940 3544 l0 -156 128 4 c108 3 131 6 154 23 57 41 65 181 14 234
-37 38 -86 51 -200 51 l-96 0 0 -156z"/>
<path d="M8752 3565 l3 -138 122 2 c67 0 133 5 146 10 45 17 67 58 67 122 0
53 -3 63 -34 97 l-34 37 -137 3 -136 4 3 -137z"/>
<path d="M2301 2059 c-18 -6 -54 -31 -81 -58 -66 -66 -90 -143 -90 -285 0 -59
4 -108 10 -111 6 -3 10 -16 10 -28 0 -12 12 -46 28 -76 20 -41 40 -63 82 -90
53 -35 58 -36 150 -36 86 0 99 3 135 26 48 31 102 91 117 128 20 51 39 186 33
236 -14 110 -54 207 -101 245 -52 42 -90 54 -174 57 -47 1 -100 -2 -119 -8z"/>
<path d="M6241 2059 c-18 -6 -57 -34 -85 -62 -67 -67 -91 -141 -91 -273 1
-220 92 -341 265 -352 63 -4 85 -1 127 18 90 38 145 120 164 243 28 178 -25
341 -131 404 -38 23 -59 27 -130 30 -47 1 -100 -2 -119 -8z"/>
<path d="M8695 2051 c-94 -42 -142 -115 -158 -240 -25 -202 28 -350 148 -414
33 -18 57 -22 130 -22 80 1 95 4 137 28 49 29 90 76 103 117 4 14 13 31 19 39
7 9 11 67 11 160 0 131 -2 151 -23 194 -30 64 -100 133 -148 146 -62 17 -173
13 -219 -8z"/>
<path d="M1190 1911 l0 -161 120 0 c110 0 124 2 159 24 60 38 80 110 54 192
-27 86 -49 98 -205 102 l-128 4 0 -161z"/>
<path d="M3330 1930 l0 -140 120 0 c152 0 189 15 216 86 15 40 16 53 5 92 -23
88 -54 102 -221 102 l-120 0 0 -140z"/>
</g>
</svg>
