<svg id="svg" version="1.1" xmlns="http://www.w3.org/2000/svg" xmlns:xlink="http://www.w3.org/1999/xlink" width="400" height="400" viewBox="0, 0, 400,400"><g id="svgg"><path id="path0" d="M64.454 45.313 C 64.455 45.420,64.449 81.631,64.441 125.781 L 64.426 206.055 93.443 206.173 C 121.395 206.286,137.087 205.918,140.794 205.060 C 141.668 204.858,143.877 204.443,145.703 204.138 C 150.359 203.359,156.659 201.745,158.789 200.784 C 159.219 200.590,160.754 199.972,162.201 199.410 C 188.200 189.315,202.397 164.856,203.012 129.102 C 203.319 111.238,202.500 103.709,198.845 90.820 C 194.998 77.255,186.088 65.071,174.219 57.145 C 170.317 54.540,161.371 50.000,160.139 50.000 C 159.891 50.000,159.134 49.744,158.457 49.431 C 156.810 48.670,153.106 47.753,144.727 46.031 C 143.551 45.790,132.126 45.566,116.016 45.470 C 101.299 45.382,83.677 45.267,76.855 45.214 C 70.034 45.161,64.453 45.205,64.454 45.313 M220.312 125.684 L 220.313 206.250 238.086 206.250 L 255.859 206.250 255.859 178.551 L 255.859 150.851 274.707 150.672 C 295.395 150.474,298.922 150.127,307.422 147.449 C 333.313 139.291,345.339 115.426,339.697 83.398 C 339.087 79.933,337.985 75.798,337.512 75.195 C 337.343 74.980,337.077 74.365,336.921 73.828 C 336.519 72.443,335.017 69.361,334.668 69.206 C 334.507 69.134,334.375 68.883,334.375 68.648 C 334.375 67.697,330.485 62.510,327.660 59.694 C 321.686 53.742,312.258 48.790,303.174 46.835 C 302.180 46.621,300.664 46.253,299.805 46.016 C 298.761 45.729,289.286 45.540,271.289 45.448 C 256.465 45.372,238.931 45.267,232.324 45.214 L 220.312 45.117 220.312 125.684 M289.213 75.107 C 296.169 76.803,302.805 82.579,304.124 88.086 C 304.278 88.730,304.600 89.504,304.839 89.806 C 306.605 92.033,305.078 105.764,302.577 110.156 C 297.487 119.093,291.796 121.079,270.410 121.382 L 255.859 121.588 255.859 97.891 L 255.859 74.193 271.191 74.322 C 283.900 74.429,286.984 74.563,289.213 75.107 M130.469 76.909 C 151.614 79.872,163.003 90.531,166.202 110.352 C 167.352 117.473,167.583 120.000,167.580 125.391 C 167.561 155.123,155.404 171.389,130.469 175.044 C 127.911 175.419,100.073 176.117,99.771 175.814 C 99.560 175.601,99.560 76.352,99.771 76.139 C 100.091 75.818,127.604 76.508,130.469 76.909 M230.078 247.629 C 220.443 250.690,216.258 257.146,216.261 268.945 C 216.265 283.653,223.613 291.090,237.609 290.555 C 249.181 290.112,255.590 282.353,255.623 268.750 C 255.660 253.117,243.764 243.281,230.078 247.629 M36.320 247.916 C 36.315 248.095,36.312 257.646,36.313 269.141 L 36.314 290.039 46.575 290.039 C 58.690 290.039,61.159 289.454,65.342 285.593 C 72.896 278.619,73.328 260.774,66.128 253.077 C 64.245 251.063,62.196 249.758,59.124 248.615 C 57.075 247.852,36.338 247.217,36.320 247.916 M78.050 247.949 C 77.984 248.110,77.977 257.690,78.034 269.238 L 78.138 290.234 91.413 290.234 L 104.688 290.234 104.688 286.133 C 104.688 283.121,104.558 282.027,104.199 282.014 C 103.931 282.004,99.968 281.960,95.393 281.916 L 87.074 281.836 86.994 277.253 L 86.914 272.671 94.883 272.566 L 102.852 272.461 102.820 268.810 C 102.781 264.295,103.741 264.777,94.656 264.708 L 86.914 264.648 86.804 260.254 L 86.693 255.859 95.690 255.859 L 104.688 255.859 104.688 251.758 L 104.688 247.656 91.429 247.656 C 84.137 247.656,78.117 247.788,78.050 247.949 M108.594 247.895 C 108.594 248.237,112.071 258.637,112.497 259.570 C 112.693 260.000,113.022 260.967,113.229 261.719 C 114.049 264.713,121.536 285.555,122.946 288.770 L 123.588 290.234 128.415 290.234 L 133.243 290.234 133.827 288.770 C 134.147 287.964,134.565 286.953,134.754 286.523 C 134.943 286.094,135.667 284.072,136.363 282.031 C 138.167 276.744,140.445 270.285,140.910 269.141 C 141.128 268.604,141.437 267.549,141.597 266.797 C 141.757 266.045,142.011 265.254,142.163 265.039 C 142.315 264.824,143.280 262.012,144.307 258.789 C 145.333 255.566,146.323 252.578,146.506 252.148 C 146.868 251.296,147.651 248.427,147.654 247.937 C 147.655 247.769,145.635 247.681,143.164 247.742 L 138.671 247.852 133.989 261.719 C 131.414 269.346,129.305 275.860,129.302 276.195 C 129.290 277.659,128.209 278.410,127.931 277.148 C 127.789 276.504,127.527 275.625,127.347 275.195 C 127.167 274.766,126.545 273.008,125.964 271.289 C 125.382 269.570,124.664 267.610,124.367 266.933 C 124.071 266.256,123.828 265.492,123.828 265.234 C 123.828 264.977,123.572 264.213,123.260 263.536 C 122.677 262.275,122.528 261.863,120.339 255.469 C 119.641 253.428,118.821 251.204,118.519 250.527 C 118.216 249.850,117.969 248.927,117.969 248.476 C 117.969 247.689,117.782 247.656,113.281 247.656 C 110.703 247.656,108.594 247.763,108.594 247.895 M152.869 268.946 L 152.808 290.234 166.261 290.234 L 179.714 290.234 179.603 286.090 L 179.492 281.946 170.605 282.008 L 161.719 282.070 161.719 277.371 L 161.719 272.672 169.629 272.567 L 177.539 272.461 177.539 268.592 L 177.539 264.723 169.629 264.810 L 161.719 264.897 161.719 260.386 L 161.719 255.874 170.532 255.769 L 179.345 255.664 179.464 251.660 L 179.582 247.656 166.256 247.657 L 152.930 247.657 152.869 268.946 M186.863 248.535 C 186.993 249.019,187.101 258.601,187.104 269.829 L 187.109 290.245 200.488 290.142 L 213.867 290.039 213.827 286.133 L 213.787 282.227 204.726 282.122 L 195.665 282.017 195.782 264.836 L 195.898 247.656 191.263 247.656 C 186.647 247.656,186.629 247.660,186.863 248.535 M262.104 247.792 C 261.999 247.896,261.961 257.488,262.018 269.108 L 262.123 290.234 266.608 290.234 L 271.094 290.234 271.094 283.050 L 271.094 275.865 277.051 275.699 C 287.311 275.415,292.045 271.886,292.946 263.853 C 293.756 256.633,291.177 251.462,285.352 248.622 C 283.861 247.896,262.754 247.142,262.104 247.792 M299.186 247.819 C 299.097 247.908,299.070 257.488,299.128 269.108 L 299.232 290.234 312.325 290.234 L 325.417 290.234 325.306 286.096 L 325.195 281.958 316.602 281.897 L 308.008 281.836 307.898 277.246 L 307.788 272.656 315.822 272.656 L 323.855 272.656 323.744 268.725 L 323.633 264.795 315.820 264.721 L 308.008 264.648 307.897 260.254 L 307.787 255.859 316.589 255.859 L 325.391 255.859 325.391 251.758 L 325.391 247.656 312.370 247.656 C 305.208 247.656,299.276 247.729,299.186 247.819 M333.008 268.924 L 333.008 290.234 337.402 290.234 L 341.797 290.234 341.797 282.227 L 341.797 274.219 344.695 274.219 C 347.544 274.219,347.605 274.240,348.368 275.488 C 349.559 277.437,353.516 285.574,353.516 286.074 C 353.516 286.210,353.900 287.201,354.370 288.278 L 355.225 290.234 359.839 290.234 C 363.550 290.234,364.453 290.127,364.453 289.683 C 364.453 288.698,357.338 273.673,356.678 273.265 C 356.414 273.102,356.944 272.616,357.993 272.058 C 362.994 269.399,365.985 261.238,363.728 256.407 C 363.437 255.783,362.936 254.721,362.615 254.045 C 361.568 251.843,359.792 250.071,357.512 248.951 L 355.273 247.852 344.141 247.732 L 333.008 247.613 333.008 268.924 M239.239 255.829 C 239.362 256.028,239.975 256.303,240.603 256.440 C 241.980 256.743,244.555 259.442,245.266 261.328 C 245.550 262.080,245.982 263.114,246.226 263.625 C 246.962 265.164,246.789 272.119,245.950 274.736 C 242.624 285.117,229.053 285.104,225.950 274.717 C 223.662 267.061,226.178 258.720,231.528 256.222 C 233.134 255.473,238.839 255.182,239.239 255.829 M280.534 256.199 C 282.935 257.236,283.696 258.244,283.896 260.654 C 284.348 266.108,282.950 267.334,276.074 267.512 L 271.094 267.640 271.094 261.554 L 271.094 255.469 274.968 255.469 C 277.888 255.469,279.258 255.649,280.534 256.199 M353.741 257.123 C 355.611 259.164,355.702 262.570,353.939 264.545 L 352.800 265.820 347.460 266.016 C 341.063 266.250,341.797 266.947,341.797 260.639 L 341.797 255.392 347.101 255.528 L 352.405 255.664 353.741 257.123 M55.987 256.675 C 60.371 258.158,61.914 261.352,61.914 268.945 C 61.914 279.253,59.132 282.031,48.809 282.031 L 44.922 282.031 44.922 268.898 L 44.922 255.765 49.707 255.967 C 52.339 256.078,55.165 256.397,55.987 256.675 M87.577 311.347 C 79.011 313.824,74.748 319.975,74.325 330.469 C 73.932 340.246,76.244 346.965,81.251 350.590 C 82.138 351.232,83.072 351.940,83.327 352.164 C 85.550 354.115,92.284 355.300,97.659 354.687 C 109.822 353.300,116.549 341.136,113.669 325.737 C 111.607 314.709,99.343 307.945,87.577 311.347 M242.969 310.938 C 242.646 311.146,242.031 311.319,241.602 311.322 C 238.906 311.344,233.335 315.369,231.052 318.945 C 227.787 324.059,226.732 335.117,228.890 341.602 C 235.430 361.257,264.632 358.791,267.598 338.333 C 270.060 321.349,262.271 310.531,247.596 310.553 C 245.373 310.556,243.291 310.729,242.969 310.938 M339.453 310.925 C 339.131 311.140,338.533 311.319,338.124 311.322 C 334.154 311.354,327.157 317.774,325.753 322.673 C 325.478 323.630,325.065 324.661,324.834 324.963 C 324.264 325.708,324.264 339.527,324.834 340.272 C 325.065 340.574,325.479 341.611,325.755 342.578 C 326.031 343.545,326.729 345.039,327.307 345.898 C 327.884 346.758,328.471 347.756,328.609 348.118 C 330.670 353.488,345.412 356.750,352.699 353.447 C 369.437 345.861,368.039 316.031,350.722 311.273 C 348.518 310.668,340.223 310.411,339.453 310.925 M37.720 332.689 L 37.745 354.102 42.115 354.212 L 46.484 354.322 46.484 347.130 L 46.484 339.937 52.691 339.779 C 56.319 339.687,59.118 339.445,59.429 339.197 C 59.722 338.964,60.605 338.566,61.393 338.313 C 71.151 335.172,71.578 317.967,62.026 312.852 L 59.570 311.537 48.633 311.406 L 37.695 311.276 37.720 332.689 M120.846 311.920 C 120.982 312.274,121.094 321.954,121.094 333.430 L 121.094 354.297 125.586 354.297 L 130.078 354.297 130.078 346.094 L 130.078 337.891 133.007 337.891 L 135.936 337.891 137.098 339.746 C 138.107 341.358,141.333 348.363,143.123 352.832 L 143.710 354.297 148.395 354.297 C 153.972 354.297,153.786 354.491,151.942 350.586 C 148.658 343.634,146.875 339.771,146.875 339.609 C 146.875 339.515,146.433 338.738,145.893 337.882 L 144.911 336.326 146.482 335.698 C 148.353 334.949,151.402 331.699,151.759 330.072 C 151.899 329.436,152.175 328.815,152.374 328.692 C 153.013 328.297,152.792 321.861,152.073 319.935 C 150.708 316.278,149.080 314.429,145.427 312.385 C 143.369 311.234,120.417 310.799,120.846 311.920 M156.250 315.430 L 156.250 319.531 162.884 319.531 L 169.519 319.531 169.427 336.816 L 169.336 354.102 173.730 354.212 L 178.125 354.322 178.125 336.927 L 178.125 319.531 184.766 319.531 L 191.406 319.531 191.406 315.430 L 191.406 311.328 173.828 311.328 L 156.250 311.328 156.250 315.430 M196.476 311.621 C 196.472 311.782,196.468 321.406,196.468 333.008 L 196.468 354.102 200.968 354.212 L 205.469 354.322 205.469 345.716 L 205.469 337.109 213.867 337.109 L 222.266 337.109 222.266 333.203 L 222.266 329.297 213.867 329.297 L 205.469 329.297 205.469 324.414 L 205.469 319.531 214.453 319.531 L 223.438 319.531 223.438 315.430 L 223.438 311.328 209.961 311.328 C 202.549 311.328,196.481 311.460,196.476 311.621 M274.805 332.813 L 274.805 354.297 288.379 354.297 L 301.953 354.297 301.953 350.203 L 301.953 346.108 292.871 346.003 L 283.789 345.898 283.789 328.613 L 283.789 311.328 279.297 311.328 L 274.805 311.328 274.805 332.813 M307.957 312.207 C 308.086 312.690,308.195 322.364,308.198 333.704 L 308.203 354.322 312.598 354.212 L 316.992 354.102 317.093 332.715 L 317.194 311.328 312.458 311.328 C 307.737 311.328,307.722 311.331,307.957 312.207 M57.406 320.134 C 60.630 322.017,60.616 328.648,57.383 330.689 C 56.001 331.561,55.483 331.641,51.180 331.641 L 46.484 331.641 46.484 325.343 L 46.484 319.046 51.287 319.206 C 55.158 319.335,56.346 319.515,57.406 320.134 M99.451 320.256 C 107.529 324.565,107.264 340.234,99.023 345.535 C 93.981 348.779,83.984 344.034,83.984 338.396 C 83.984 337.929,83.809 337.437,83.594 337.305 C 82.818 336.825,83.134 329.089,84.043 326.274 C 86.067 320.009,93.526 317.095,99.451 320.256 M140.807 319.696 C 143.299 320.737,144.356 324.950,142.791 327.600 C 141.609 329.601,140.061 330.078,134.752 330.078 L 130.078 330.078 130.078 324.609 L 130.078 319.141 134.778 319.141 C 137.957 319.141,139.908 319.320,140.807 319.696 M251.610 319.538 C 260.989 322.143,261.547 341.369,252.366 345.597 C 244.095 349.406,236.939 343.276,236.988 332.422 C 237.033 322.402,242.998 317.146,251.610 319.538 M348.184 319.563 C 350.074 320.088,352.805 322.772,353.991 325.270 C 355.008 327.412,355.352 337.968,354.442 339.100 C 354.200 339.402,353.867 340.088,353.703 340.625 C 351.845 346.685,341.212 348.478,336.686 343.494 C 331.905 338.229,332.007 326.340,336.874 321.719 C 339.401 319.319,344.088 318.425,348.184 319.563 " stroke="none" fill="#f3f3f3" fill-rule="evenodd"></path><path id="path1" d="M66.602 0.620 C 64.238 0.913,62.023 1.319,61.679 1.521 C 61.334 1.723,60.233 2.011,59.232 2.161 C 58.231 2.311,57.327 2.572,57.223 2.740 C 57.119 2.909,56.110 3.263,54.982 3.528 C 53.853 3.792,52.752 4.148,52.534 4.319 C 52.316 4.490,51.305 4.839,50.288 5.096 C 49.270 5.352,48.438 5.689,48.438 5.844 C 48.438 5.999,47.690 6.349,46.777 6.622 C 45.864 6.895,45.029 7.230,44.922 7.367 C 44.814 7.505,43.678 8.145,42.396 8.789 C 41.115 9.434,39.828 10.180,39.537 10.449 C 39.246 10.717,38.581 11.044,38.059 11.175 C 37.537 11.306,37.109 11.541,37.109 11.698 C 37.109 11.855,36.663 12.187,36.118 12.436 C 35.573 12.684,34.914 13.065,34.653 13.281 C 34.393 13.498,33.125 14.465,31.836 15.430 C 26.393 19.505,21.110 24.693,16.723 30.273 C 15.034 32.422,13.474 34.399,13.256 34.668 C 13.038 34.937,12.967 35.156,13.098 35.156 C 13.230 35.156,13.105 35.414,12.821 35.729 C 11.697 36.975,11.413 37.398,11.155 38.211 C 11.007 38.677,10.678 39.279,10.424 39.548 C 10.169 39.818,9.434 41.137,8.789 42.480 C 8.145 43.822,7.508 44.920,7.375 44.921 C 7.242 44.921,6.911 45.713,6.641 46.680 C 6.370 47.646,6.015 48.437,5.852 48.437 C 5.689 48.437,5.447 49.009,5.315 49.707 C 5.182 50.405,4.835 51.434,4.543 51.994 C 4.250 52.554,3.789 53.960,3.517 55.119 C 3.245 56.278,2.890 57.402,2.727 57.617 C 2.565 57.832,2.303 58.799,2.145 59.766 C 1.987 60.732,1.720 61.612,1.551 61.719 C -0.896 63.284,-0.874 336.775,1.574 338.288 C 1.754 338.400,2.024 339.411,2.173 340.535 C 2.322 341.659,2.570 342.578,2.723 342.578 C 2.876 342.578,3.219 343.552,3.485 344.743 C 3.752 345.934,4.218 347.384,4.522 347.966 C 4.825 348.547,5.182 349.595,5.315 350.293 C 5.447 350.991,5.684 351.562,5.841 351.563 C 5.998 351.563,6.349 352.310,6.622 353.223 C 6.895 354.136,7.230 354.971,7.367 355.078 C 7.505 355.186,8.145 356.322,8.789 357.604 C 9.434 358.885,10.180 360.172,10.449 360.463 C 10.717 360.754,11.044 361.419,11.175 361.941 C 11.306 362.463,11.541 362.891,11.698 362.891 C 11.855 362.891,12.187 363.337,12.436 363.882 C 12.684 364.427,13.065 365.086,13.281 365.347 C 13.498 365.607,14.465 366.875,15.430 368.164 C 19.915 374.155,25.845 380.085,31.836 384.570 C 33.125 385.535,34.393 386.502,34.653 386.719 C 34.914 386.935,35.573 387.316,36.118 387.564 C 36.663 387.813,37.109 388.145,37.109 388.302 C 37.109 388.459,37.537 388.694,38.059 388.825 C 38.581 388.956,39.246 389.283,39.537 389.551 C 39.828 389.820,41.115 390.566,42.396 391.211 C 43.678 391.855,44.814 392.495,44.922 392.633 C 45.029 392.770,45.864 393.105,46.777 393.378 C 47.690 393.651,48.438 394.008,48.438 394.171 C 48.438 394.335,49.009 394.591,49.707 394.740 C 50.405 394.889,51.714 395.342,52.615 395.747 C 53.517 396.153,54.571 396.485,54.959 396.487 C 55.347 396.488,56.133 396.734,56.706 397.033 C 57.280 397.332,58.510 397.702,59.441 397.856 C 60.371 398.010,61.309 398.270,61.523 398.435 C 63.268 399.776,66.172 399.805,200.000 399.805 C 333.828 399.805,336.732 399.776,338.477 398.435 C 338.691 398.270,339.658 398.008,340.625 397.852 C 341.592 397.696,342.559 397.435,342.773 397.273 C 342.988 397.110,344.087 396.761,345.216 396.496 C 346.345 396.232,347.355 395.875,347.461 395.703 C 347.567 395.531,348.533 395.180,349.608 394.922 C 350.683 394.664,351.563 394.323,351.563 394.163 C 351.562 394.004,352.310 393.651,353.223 393.378 C 354.136 393.105,354.971 392.770,355.078 392.633 C 355.186 392.495,356.322 391.855,357.604 391.211 C 358.885 390.566,360.172 389.820,360.463 389.551 C 360.754 389.283,361.419 388.956,361.941 388.825 C 362.463 388.694,362.891 388.459,362.891 388.302 C 362.891 388.145,363.337 387.813,363.882 387.564 C 364.427 387.316,365.086 386.935,365.347 386.719 C 365.607 386.502,366.875 385.535,368.164 384.570 C 374.155 380.085,380.085 374.155,384.570 368.164 C 385.535 366.875,386.502 365.607,386.719 365.347 C 386.935 365.086,387.316 364.427,387.564 363.882 C 387.813 363.337,388.145 362.891,388.302 362.891 C 388.459 362.891,388.694 362.463,388.825 361.941 C 388.956 361.419,389.283 360.754,389.551 360.463 C 389.820 360.172,390.566 358.885,391.211 357.604 C 391.855 356.322,392.495 355.186,392.633 355.078 C 392.770 354.971,393.105 354.136,393.378 353.223 C 393.651 352.310,394.002 351.563,394.159 351.563 C 394.316 351.563,394.553 350.991,394.685 350.293 C 394.818 349.595,395.175 348.547,395.478 347.966 C 395.782 347.384,396.248 345.934,396.515 344.743 C 396.781 343.552,397.131 342.578,397.291 342.578 C 397.452 342.578,397.709 341.655,397.862 340.527 C 398.016 339.399,398.280 338.388,398.448 338.281 C 400.878 336.730,400.878 63.270,398.448 61.719 C 398.280 61.612,398.016 60.601,397.862 59.473 C 397.709 58.345,397.452 57.422,397.291 57.422 C 397.131 57.422,396.781 56.448,396.515 55.257 C 396.248 54.066,395.782 52.616,395.478 52.034 C 395.175 51.453,394.818 50.405,394.685 49.707 C 394.553 49.009,394.316 48.438,394.159 48.438 C 394.002 48.438,393.651 47.690,393.378 46.777 C 393.105 45.864,392.770 45.029,392.633 44.922 C 392.495 44.814,391.855 43.678,391.211 42.396 C 390.566 41.115,389.831 39.839,389.576 39.562 C 389.322 39.285,388.991 38.672,388.841 38.199 C 388.691 37.727,388.372 37.119,388.132 36.848 C 387.017 35.590,386.705 35.156,386.914 35.156 C 387.038 35.156,386.957 34.937,386.732 34.668 C 386.508 34.399,385.535 33.125,384.570 31.836 C 380.085 25.845,374.155 19.915,368.164 15.430 C 366.875 14.465,365.607 13.498,365.347 13.281 C 365.086 13.065,364.427 12.684,363.882 12.436 C 363.337 12.187,362.891 11.855,362.891 11.698 C 362.891 11.541,362.463 11.306,361.941 11.175 C 361.419 11.044,360.754 10.717,360.463 10.449 C 360.172 10.180,358.885 9.434,357.604 8.789 C 356.322 8.145,355.186 7.505,355.078 7.367 C 354.971 7.230,354.136 6.895,353.223 6.622 C 352.310 6.349,351.563 5.999,351.563 5.844 C 351.563 5.689,350.730 5.352,349.712 5.096 C 348.695 4.839,347.684 4.490,347.466 4.319 C 347.248 4.148,346.147 3.792,345.018 3.528 C 343.890 3.263,342.881 2.909,342.777 2.740 C 342.673 2.572,341.751 2.309,340.727 2.157 C 339.704 2.005,338.691 1.737,338.477 1.561 C 336.467 -0.078,79.410 -0.968,66.602 0.620 M116.016 45.470 C 132.126 45.566,143.551 45.790,144.727 46.031 C 153.106 47.753,156.810 48.670,158.457 49.431 C 159.134 49.744,159.891 50.000,160.139 50.000 C 160.736 50.000,163.463 51.216,167.773 53.404 C 181.721 60.485,192.435 72.536,197.565 86.914 C 205.009 107.775,205.268 139.708,198.166 160.938 C 192.435 178.070,178.347 193.141,162.201 199.410 C 160.754 199.972,159.219 200.590,158.789 200.784 C 156.659 201.745,150.359 203.359,145.703 204.138 C 143.877 204.443,141.668 204.858,140.794 205.060 C 137.087 205.918,121.395 206.286,93.443 206.173 L 64.426 206.055 64.441 125.781 C 64.449 81.631,64.455 45.420,64.454 45.313 C 64.453 45.205,70.034 45.161,76.855 45.214 C 83.677 45.267,101.299 45.382,116.016 45.470 M271.289 45.448 C 289.286 45.540,298.761 45.729,299.805 46.016 C 300.664 46.253,302.180 46.621,303.174 46.835 C 312.258 48.790,321.686 53.742,327.660 59.694 C 330.485 62.510,334.375 67.697,334.375 68.648 C 334.375 68.883,334.507 69.134,334.668 69.206 C 335.017 69.361,336.519 72.443,336.921 73.828 C 337.077 74.365,337.343 74.980,337.512 75.195 C 337.985 75.798,339.087 79.933,339.697 83.398 C 345.339 115.426,333.313 139.291,307.422 147.449 C 298.922 150.127,295.395 150.474,274.707 150.672 L 255.859 150.851 255.859 178.551 L 255.859 206.250 238.086 206.250 L 220.313 206.250 220.312 125.684 L 220.312 45.117 232.324 45.214 C 238.931 45.267,256.465 45.372,271.289 45.448 M255.859 97.891 L 255.859 121.588 270.410 121.382 C 291.796 121.079,297.487 119.093,302.577 110.156 C 305.078 105.764,306.605 92.033,304.839 89.806 C 304.600 89.504,304.278 88.730,304.124 88.086 C 303.474 85.372,300.367 81.211,297.211 78.825 C 291.925 74.830,289.899 74.479,271.191 74.322 L 255.859 74.193 255.859 97.891 M99.771 76.139 C 99.560 76.352,99.560 175.601,99.771 175.814 C 100.073 176.117,127.911 175.419,130.469 175.044 C 149.864 172.201,160.310 163.107,165.210 144.799 C 169.705 128.005,167.682 106.106,160.523 94.055 C 154.947 84.669,144.886 78.929,130.469 76.909 C 127.604 76.508,100.091 75.818,99.771 76.139 M241.082 247.507 C 250.829 249.997,255.650 257.041,255.623 268.750 C 255.585 284.624,245.721 293.189,230.849 290.264 C 218.138 287.763,211.835 270.376,218.671 256.674 C 222.384 249.232,232.168 245.230,241.082 247.507 M59.124 248.615 C 64.801 250.728,68.037 254.063,70.209 260.039 C 71.234 262.861,71.200 274.630,70.158 277.930 C 68.848 282.075,65.736 285.975,62.305 287.773 C 58.138 289.956,57.558 290.039,46.575 290.039 L 36.314 290.039 36.313 269.141 C 36.312 257.646,36.315 248.095,36.320 247.916 C 36.338 247.217,57.075 247.852,59.124 248.615 M104.688 251.758 L 104.688 255.859 95.690 255.859 L 86.693 255.859 86.804 260.254 L 86.914 264.648 94.656 264.708 C 103.741 264.777,102.781 264.295,102.820 268.810 L 102.852 272.461 94.883 272.566 L 86.914 272.671 86.994 277.253 L 87.074 281.836 95.393 281.916 C 99.968 281.960,103.931 282.004,104.199 282.014 C 104.558 282.027,104.688 283.121,104.688 286.133 L 104.688 290.234 91.413 290.234 L 78.138 290.234 78.034 269.238 C 77.977 257.690,77.984 248.110,78.050 247.949 C 78.117 247.788,84.137 247.656,91.429 247.656 L 104.688 247.656 104.688 251.758 M117.969 248.476 C 117.969 248.927,118.216 249.850,118.519 250.527 C 118.821 251.204,119.641 253.428,120.339 255.469 C 122.528 261.863,122.677 262.275,123.260 263.536 C 123.572 264.213,123.828 264.977,123.828 265.234 C 123.828 265.492,124.071 266.256,124.367 266.933 C 124.664 267.610,125.382 269.570,125.964 271.289 C 126.545 273.008,127.167 274.766,127.347 275.195 C 127.527 275.625,127.789 276.504,127.931 277.148 C 128.209 278.410,129.290 277.659,129.302 276.195 C 129.305 275.860,131.414 269.346,133.989 261.719 L 138.671 247.852 143.164 247.742 C 145.635 247.681,147.655 247.769,147.654 247.937 C 147.651 248.427,146.868 251.296,146.506 252.148 C 146.323 252.578,145.333 255.566,144.307 258.789 C 143.280 262.012,142.315 264.824,142.163 265.039 C 142.011 265.254,141.757 266.045,141.597 266.797 C 141.437 267.549,141.128 268.604,140.910 269.141 C 140.445 270.285,138.167 276.744,136.363 282.031 C 135.667 284.072,134.943 286.094,134.754 286.523 C 134.565 286.953,134.147 287.964,133.827 288.770 L 133.243 290.234 128.415 290.234 L 123.588 290.234 122.946 288.770 C 121.536 285.555,114.049 264.713,113.229 261.719 C 113.022 260.967,112.693 260.000,112.497 259.570 C 112.071 258.637,108.594 248.237,108.594 247.895 C 108.594 247.763,110.703 247.656,113.281 247.656 C 117.782 247.656,117.969 247.689,117.969 248.476 M179.464 251.660 L 179.345 255.664 170.532 255.769 L 161.719 255.874 161.719 260.386 L 161.719 264.897 169.629 264.810 L 177.539 264.723 177.539 268.592 L 177.539 272.461 169.629 272.567 L 161.719 272.672 161.719 277.371 L 161.719 282.070 170.605 282.008 L 179.492 281.946 179.603 286.090 L 179.714 290.234 166.261 290.234 L 152.808 290.234 152.869 268.946 L 152.930 247.657 166.256 247.657 L 179.582 247.656 179.464 251.660 M195.782 264.836 L 195.665 282.017 204.726 282.122 L 213.787 282.227 213.827 286.133 L 213.867 290.039 200.488 290.142 L 187.109 290.245 187.104 269.829 C 187.101 258.601,186.993 249.019,186.863 248.535 C 186.629 247.660,186.647 247.656,191.263 247.656 L 195.898 247.656 195.782 264.836 M285.352 248.622 C 291.177 251.462,293.756 256.633,292.946 263.853 C 292.045 271.886,287.311 275.415,277.051 275.699 L 271.094 275.865 271.094 283.050 L 271.094 290.234 266.608 290.234 L 262.123 290.234 262.018 269.108 C 261.961 257.488,261.999 247.896,262.104 247.792 C 262.754 247.142,283.861 247.896,285.352 248.622 M325.391 251.758 L 325.391 255.859 316.589 255.859 L 307.787 255.859 307.897 260.254 L 308.008 264.648 315.820 264.721 L 323.633 264.795 323.744 268.725 L 323.855 272.656 315.822 272.656 L 307.788 272.656 307.898 277.246 L 308.008 281.836 316.602 281.897 L 325.195 281.958 325.306 286.096 L 325.417 290.234 312.325 290.234 L 299.232 290.234 299.128 269.108 C 299.070 257.488,299.097 247.908,299.186 247.819 C 299.276 247.729,305.208 247.656,312.370 247.656 L 325.391 247.656 325.391 251.758 M357.512 248.951 C 359.792 250.071,361.568 251.843,362.615 254.045 C 362.936 254.721,363.437 255.783,363.728 256.407 C 365.985 261.238,362.994 269.399,357.993 272.058 C 356.944 272.616,356.414 273.102,356.678 273.265 C 357.338 273.673,364.453 288.698,364.453 289.683 C 364.453 290.127,363.550 290.234,359.839 290.234 L 355.225 290.234 354.370 288.278 C 353.900 287.201,353.516 286.210,353.516 286.074 C 353.516 285.574,349.559 277.437,348.368 275.488 C 347.605 274.240,347.544 274.219,344.695 274.219 L 341.797 274.219 341.797 282.227 L 341.797 290.234 337.402 290.234 L 333.008 290.234 333.008 268.924 L 333.008 247.613 344.141 247.732 L 355.273 247.852 357.512 248.951 M231.528 256.222 C 226.178 258.720,223.662 267.061,225.950 274.717 C 229.053 285.104,242.624 285.117,245.950 274.736 C 246.789 272.119,246.962 265.164,246.226 263.625 C 245.982 263.114,245.550 262.080,245.266 261.328 C 244.555 259.442,241.980 256.743,240.603 256.440 C 239.975 256.303,239.362 256.028,239.239 255.829 C 238.839 255.182,233.134 255.473,231.528 256.222 M271.094 261.554 L 271.094 267.640 276.074 267.512 C 282.950 267.334,284.348 266.108,283.896 260.654 C 283.584 256.893,281.131 255.469,274.968 255.469 L 271.094 255.469 271.094 261.554 M341.797 260.639 C 341.797 266.947,341.063 266.250,347.460 266.016 L 352.800 265.820 353.939 264.545 C 355.702 262.570,355.611 259.164,353.741 257.123 L 352.405 255.664 347.101 255.528 L 341.797 255.392 341.797 260.639 M44.922 268.898 L 44.922 282.031 48.809 282.031 C 59.132 282.031,61.914 279.253,61.914 268.945 C 61.914 258.832,59.613 256.386,49.707 255.967 L 44.922 255.765 44.922 268.898 M99.833 311.178 C 109.890 314.475,114.063 320.755,114.063 332.599 C 114.063 343.243,110.862 349.452,103.515 353.061 C 97.994 355.773,86.877 355.279,83.327 352.164 C 83.072 351.940,82.138 351.232,81.251 350.590 C 72.297 344.108,71.585 323.150,80.057 315.495 C 84.813 311.199,93.867 309.222,99.833 311.178 M253.846 311.177 C 264.589 314.240,269.644 324.221,267.598 338.333 C 264.632 358.791,235.430 361.257,228.890 341.602 C 226.732 335.117,227.787 324.059,231.052 318.945 C 233.335 315.369,238.906 311.344,241.602 311.322 C 242.031 311.319,242.646 311.146,242.969 310.938 C 243.939 310.310,251.382 310.474,253.846 311.177 M350.722 311.273 C 361.215 314.156,366.780 326.923,363.419 340.402 C 360.852 350.699,352.523 356.011,341.017 354.690 C 336.403 354.160,329.531 350.520,328.609 348.118 C 328.471 347.756,327.884 346.758,327.307 345.898 C 326.729 345.039,326.031 343.545,325.755 342.578 C 325.479 341.611,325.065 340.574,324.834 340.272 C 324.264 339.527,324.264 325.708,324.834 324.963 C 325.065 324.661,325.478 323.630,325.753 322.673 C 327.157 317.774,334.154 311.354,338.124 311.322 C 338.533 311.319,339.131 311.140,339.453 310.925 C 340.223 310.411,348.518 310.668,350.722 311.273 M62.026 312.852 C 71.578 317.967,71.151 335.172,61.393 338.313 C 60.605 338.566,59.722 338.964,59.429 339.197 C 59.118 339.445,56.319 339.687,52.691 339.779 L 46.484 339.937 46.484 347.130 L 46.484 354.322 42.115 354.212 L 37.745 354.102 37.720 332.689 L 37.695 311.276 48.633 311.406 L 59.570 311.537 62.026 312.852 M145.427 312.385 C 149.080 314.429,150.708 316.278,152.073 319.935 C 152.792 321.861,153.013 328.297,152.374 328.692 C 152.175 328.815,151.899 329.436,151.759 330.072 C 151.402 331.699,148.353 334.949,146.482 335.698 L 144.911 336.326 145.893 337.882 C 146.433 338.738,146.875 339.515,146.875 339.609 C 146.875 339.771,148.658 343.634,151.942 350.586 C 153.786 354.491,153.972 354.297,148.395 354.297 L 143.710 354.297 143.123 352.832 C 141.333 348.363,138.107 341.358,137.098 339.746 L 135.936 337.891 133.007 337.891 L 130.078 337.891 130.078 346.094 L 130.078 354.297 125.586 354.297 L 121.094 354.297 121.094 333.430 C 121.094 321.954,120.982 312.274,120.846 311.920 C 120.417 310.799,143.369 311.234,145.427 312.385 M191.406 315.430 L 191.406 319.531 184.766 319.531 L 178.125 319.531 178.125 336.927 L 178.125 354.322 173.730 354.212 L 169.336 354.102 169.427 336.816 L 169.519 319.531 162.884 319.531 L 156.250 319.531 156.250 315.430 L 156.250 311.328 173.828 311.328 L 191.406 311.328 191.406 315.430 M223.438 315.430 L 223.438 319.531 214.453 319.531 L 205.469 319.531 205.469 324.414 L 205.469 329.297 213.867 329.297 L 222.266 329.297 222.266 333.203 L 222.266 337.109 213.867 337.109 L 205.469 337.109 205.469 345.716 L 205.469 354.322 200.968 354.212 L 196.468 354.102 196.468 333.008 C 196.468 321.406,196.472 311.782,196.476 311.621 C 196.481 311.460,202.549 311.328,209.961 311.328 L 223.438 311.328 223.438 315.430 M283.789 328.613 L 283.789 345.898 292.871 346.003 L 301.953 346.108 301.953 350.203 L 301.953 354.297 288.379 354.297 L 274.805 354.297 274.805 332.813 L 274.805 311.328 279.297 311.328 L 283.789 311.328 283.789 328.613 M317.093 332.715 L 316.992 354.102 312.598 354.212 L 308.203 354.322 308.198 333.704 C 308.195 322.364,308.086 312.690,307.957 312.207 C 307.722 311.331,307.737 311.328,312.458 311.328 L 317.194 311.328 317.093 332.715 M46.484 325.343 L 46.484 331.641 51.180 331.641 C 57.947 331.641,59.816 330.284,59.736 325.430 C 59.655 320.543,58.151 319.435,51.287 319.206 L 46.484 319.046 46.484 325.343 M89.901 319.566 C 87.666 320.247,85.006 323.292,84.043 326.274 C 83.134 329.089,82.818 336.825,83.594 337.305 C 83.809 337.437,83.984 337.929,83.984 338.396 C 83.984 344.034,93.981 348.779,99.023 345.535 C 107.264 340.234,107.529 324.565,99.451 320.256 C 97.616 319.277,92.146 318.882,89.901 319.566 M130.078 324.609 L 130.078 330.078 134.752 330.078 C 141.465 330.078,143.518 328.797,143.503 324.617 C 143.487 320.284,141.665 319.141,134.778 319.141 L 130.078 319.141 130.078 324.609 M244.336 319.474 C 235.308 322.425,233.963 340.045,242.383 345.052 C 249.401 349.226,257.284 344.938,258.638 336.212 C 260.413 324.775,253.362 316.524,244.336 319.474 M339.639 319.872 C 330.983 323.804,330.855 341.330,339.453 345.447 C 344.687 347.953,352.240 345.397,353.703 340.625 C 353.867 340.088,354.200 339.402,354.442 339.100 C 355.352 337.968,355.008 327.412,353.991 325.270 C 351.450 319.918,344.934 317.467,339.639 319.872 " stroke="none" fill="#040404" fill-rule="evenodd"></path></g></svg>